<?xml version="1.0" standalone="no"?>
<!DOCTYPE svg PUBLIC "-//W3C//DTD SVG 20010904//EN"
 "http://www.w3.org/TR/2001/REC-SVG-20010904/DTD/svg10.dtd">
<svg version="1.0" xmlns="http://www.w3.org/2000/svg"
 width="260.000000pt" height="260.000000pt" viewBox="0 0 260.000000 260.000000"
 preserveAspectRatio="xMidYMid meet">
<metadata>
Created by potrace 1.14, written by Peter Selinger 2001-2017
</metadata>
<g transform="translate(0.000000,260.000000) scale(0.100000,-0.100000)"
fill="#000000" stroke="none">
<path d="M547 2052 c-24 -15 -377 -470 -377 -486 0 -3 47 -6 104 -6 l104 0
112 148 c61 81 115 148 118 149 4 1 33 -32 64 -75 l57 -77 -104 -3 -104 -3
-47 -65 c-26 -36 -44 -67 -42 -70 3 -2 143 -3 312 -2 l307 3 -133 180 c-73 99
-150 204 -171 233 -62 87 -135 114 -200 74z"/>
<path d="M1105 2045 l-25 -24 0 -231 0 -230 90 0 89 0 3 130 3 131 135 -108
c170 -137 188 -149 227 -157 32 -7 70 6 85 28 4 6 8 118 8 249 l0 238 -87 -3
-88 -3 -5 -129 -5 -128 -133 106 c-73 59 -149 118 -169 132 -47 32 -96 32
-128 -1z"/>
<path d="M2190 1926 c0 -80 -4 -156 -10 -170 -16 -44 -43 -51 -225 -56 l-170
-5 -3 -68 -3 -69 198 4 c183 3 202 5 251 27 61 28 107 76 121 128 6 21 11 109
11 196 l0 157 -85 0 -85 0 0 -144z"/>
<path d="M2257 43 c-3 -5 -2 -15 3 -22 10 -17 43 -6 38 12 -6 15 -34 22 -41
10z"/>
</g>
</svg>
